<?xml version="1.0" encoding="UTF-8"?>
<svg xmlns="http://www.w3.org/2000/svg" xmlns:xlink="http://www.w3.org/1999/xlink" width="16px" height="16px" viewBox="0 0 16 16" version="1.1">
<g id="surface1">
<path style="fill-rule:nonzero;fill:rgb(0%,46.666667%,80.000001%);fill-opacity:1;stroke-width:1;stroke-linecap:butt;stroke-linejoin:miter;stroke:rgb(0%,46.666667%,80.000001%);stroke-opacity:1;stroke-miterlimit:4;" d="M 34.395149 0 L 9.520852 0 C 6.754658 0 4.524549 2.240831 4.524549 4.996303 L 4.524549 38.919698 C 4.524549 41.675169 6.754658 43.916 9.520852 43.916 L 34.395149 43.916 C 37.15062 43.916 39.391452 41.675169 39.391452 38.919698 L 39.391452 4.996303 C 39.391452 2.240831 37.15062 0 34.395149 0 Z M 9.209923 16.854481 C 9.209923 15.685818 10.164152 14.731588 11.332816 14.731588 L 12.072611 14.731588 C 11.279207 13.863132 10.796732 12.705191 10.796732 11.429311 C 10.796732 8.706004 13.005398 6.497338 15.728704 6.497338 C 18.452011 6.497338 20.660677 8.706004 20.660677 11.429311 C 20.660677 12.705191 20.16748 13.863132 19.374075 14.731588 L 20.092428 14.731588 C 21.261091 14.731588 22.204599 15.685818 22.204599 16.854481 L 22.204599 20.435522 C 22.204599 21.550576 21.336143 22.461919 20.23181 22.536971 L 11.182712 22.536971 C 10.078379 22.461919 9.209923 21.550576 9.209923 20.435522 Z M 32.711845 37.418662 L 11.204155 37.418662 C 10.099822 37.418662 9.209923 36.518041 9.209923 35.413708 C 9.209923 34.309375 10.099822 33.419476 11.204155 33.419476 L 32.711845 33.419476 C 33.816178 33.419476 34.706077 34.309375 34.706077 35.413708 C 34.706077 36.518041 33.816178 37.418662 32.711845 37.418662 Z M 32.711845 29.913487 L 11.204155 29.913487 C 10.099822 29.913487 9.209923 29.023587 9.209923 27.919254 C 9.209923 26.814921 10.099822 25.9143 11.204155 25.9143 L 32.711845 25.9143 C 33.816178 25.9143 34.706077 26.814921 34.706077 27.919254 C 34.706077 29.023587 33.816178 29.913487 32.711845 29.913487 Z M 32.711845 22.419032 L 26.203785 22.419032 C 25.099452 22.419032 24.209553 21.518411 24.209553 20.414078 C 24.209553 19.309745 25.099452 18.419846 26.203785 18.419846 L 32.711845 18.419846 C 33.816178 18.419846 34.706077 19.309745 34.706077 20.414078 C 34.706077 21.518411 33.816178 22.419032 32.711845 22.419032 Z M 32.711845 22.419032 " transform="matrix(0.364332,0,0,0.364332,0,0)"/>
</g>
</svg>
